Coordinates
version=1
nRows=6
nColumns=107
inDegrees=yes

Units are S.I. units (second, meters, Newtons, ...)
If the header above contains a line with 'inDegrees', this indicates whether rotational values are in degrees (yes) or radians (no).

endheader
time	sternoclavicular_r2	sternoclavicular_r3	unrotscap_r3	unrotscap_r2	acromioclavicular_r2	acromioclavicular_r3	acromioclavicular_r1	unrothum_r1	unrothum_r3	unrothum_r2	elv_angle	shoulder_elv	shoulder1_r2	shoulder_rot	elbow_flexion	pro_sup	deviation	flexion	proximal_distal_r1	proximal_distal_r3	cmc_flexion	cmc_abduction	mp_flexion	ip_flexion	mcp2_flexion	mcp2_abduction	pm2_flexion	md2_flexion	mcp3_flexion	mcp3_abduction	pm3_flexion	md3_flexion	mcp4_flexion	mcp4_abduction	pm4_flexion	md4_flexion	mcp5_flexion	mcp5_abduction	pm5_flexion	md5_flexion	bicpt_tx	bicpt_ty	bicpt_tz	bicpt2_tx	bicpt2_ty	bicpt2_tz	ptpt_tx	ptpt_ty	ptpt_tz	FCUpt_tx	FCUpt_ty	FCUpt_tz	EDCpt_tx	EDCpt_ty	EDCpt_tz	APLpt_tx	APLpt_ty	APLpt_tz	FPLpt_tx	FPLpt_ty	FPLpt_tz	FPLpt2_tx	FPLpt2_ty	FPLpt2_tz	PEC1pt2_tx	PEC1pt2_ty	PEC1pt2_tz	PEC1pt3_tx	PEC1pt3_ty	PEC1pt3_tz	PEC2pt2_tx	PEC2pt2_ty	PEC2pt2_tz	PEC2pt3_tx	PEC2pt3_ty	PEC2pt3_tz	PEC3pt2_tx	PEC3pt2_ty	PEC3pt2_tz	PEC3pt3_tx	PEC3pt3_ty	PEC3pt3_tz	DELT2pt2a_tx	DELT2pt2a_ty	DELT2pt2a_tz	DELT2pt2_tx	DELT2pt2_ty	DELT2pt2_tz	LAT1pt2_tx	LAT1pt2_ty	LAT1pt2_tz	LAT1pt3_tx	LAT1pt3_ty	LAT1pt3_tz	LAT2pt2_tx	LAT2pt2_ty	LAT2pt2_tz	LAT2pt3_tx	LAT2pt3_ty	LAT2pt3_tz	LAT3pt2_tx	LAT3pt2_ty	LAT3pt2_tz	LAT3pt3_tx	LAT3pt3_ty	LAT3pt3_tz
      1.03333333	     -0.31264874	      0.13242325	     -0.13242325	      0.31264874	     -0.06330501	      0.51160882	      0.22996464	     -0.22996464	     -0.51160882	      0.06330501	    102.39857020	     74.02236745	     -1.78719220	    -40.64958015	     30.64075204	     84.83797381	      0.35600622	     -0.49086291	      0.37941281	     -0.24543145	     40.73468692	    -15.73759057	      1.70669778	      6.99458423	    106.64486126	     11.91673209	     75.69116312	     60.14168786	     99.82969861	     -0.53397955	     81.94837004	     52.68907998	     92.64353435	    -13.57652911	     93.52756495	     41.12562942	    101.66120320	    -14.24301835	     84.66502221	      5.59019426	      0.00091350	     -0.03111190	     -0.00486567	      0.01435848	     -0.01852371	     -0.00127409	      0.00128143	     -0.06895336	     -0.00688415	      0.01260472	     -0.18227689	      0.00005230	     -0.01018053	      0.00351445	     -0.00072027	      0.00030044	      0.00012018	      0.00060088	      0.00038456	      0.00115369	      0.00064895	     -0.00000949	     -0.00009653	     -0.00011583	      0.00242629	      0.00851258	      0.00592179	     -0.00793685	      0.01916358	     -0.01817662	      0.00242629	      0.00851258	      0.00592179	      0.00053461	      0.01776538	     -0.00933505	      0.00386591	      0.00473374	      0.01576364	      0.00000000	      0.00732504	      0.00000000	     -0.00694988	     -0.03211751	     -0.00603715	      0.02284048	     -0.00113456	     -0.01330054	     -0.00086360	      0.01447550	     -0.00592179	      0.00238517	      0.02089077	     -0.01727190	     -0.00579842	      0.01254269	     -0.00530494	     -0.01209033	      0.02648358	     -0.02965010	     -0.02270021	      0.01402314	     -0.00711438	     -0.01505123	      0.03059594	     -0.03705234
      1.06666667	     -0.31279600	      0.13248562	     -0.13248562	      0.31279600	     -0.06333483	      0.51184979	      0.23007296	     -0.23007296	     -0.51184979	      0.06333483	    102.33935171	     74.05723232	     -1.78615864	    -40.41217942	     30.64291767	     84.80523673	      0.35630643	     -0.49411707	      0.37964539	     -0.24705854	     40.62939208	    -15.92148551	      1.28251405	      6.86553818	    106.46513714	     11.92293021	     74.75217751	     60.01960161	     99.99122686	     -0.65453402	     81.32368969	     53.02489742	     93.12632186	    -13.58881503	     92.75769025	     41.45971465	    102.14081984	    -14.23870492	     83.13345642	      5.60339230	      0.00091357	     -0.03111215	     -0.00486571	      0.01436178	     -0.01852430	     -0.00127964	      0.00128385	     -0.06895180	     -0.00688152	      0.01260097	     -0.18227799	      0.00005143	     -0.01017660	      0.00351267	     -0.00071924	      0.00030109	      0.00012043	      0.00060217	      0.00038539	      0.00115617	      0.00065034	     -0.00000965	     -0.00009865	     -0.00011838	      0.00242743	      0.00851659	      0.00592458	     -0.00794059	      0.01917261	     -0.01818518	      0.00242743	      0.00851659	      0.00592458	      0.00053486	      0.01777375	     -0.00933945	      0.00386726	      0.00473597	      0.01576704	      0.00000000	      0.00733198	      0.00000000	     -0.00695316	     -0.03213264	     -0.00604292	      0.02276869	     -0.00112589	     -0.01315934	     -0.00086400	      0.01448232	     -0.00592458	      0.00238629	      0.02090061	     -0.01728004	     -0.00580115	      0.01254860	     -0.00530744	     -0.01209602	      0.02649605	     -0.02966406	     -0.02271090	      0.01402974	     -0.00711773	     -0.01505832	      0.03061035	     -0.03706979
      1.10000000	     -0.31269968	      0.13244483	     -0.13244483	      0.31269968	     -0.06331532	      0.51169218	      0.23000211	     -0.23000211	     -0.51169218	      0.06331532	    102.23868962	     74.03442897	     -1.78440176	    -40.22091244	     30.82311398	     84.90497417	      0.35362895	     -0.49749546	      0.37756716	     -0.24874773	     40.33146704	    -16.24401812	      0.53027916	      6.74318788	    104.74784478	     12.03408659	     73.38785979	     59.49539192	     99.01138313	     -0.56746571	     80.13026261	     52.30239055	     92.50439346	    -13.60936507	     91.32294293	     41.08723112	    101.41372269	    -14.23871889	     81.49977070	      5.53854239	      0.00091953	     -0.03113280	     -0.00486904	      0.01435173	     -0.01857325	     -0.00126272	      0.00127648	     -0.06895656	     -0.00688955	      0.01261239	     -0.18227465	      0.00005409	     -0.01018857	      0.00351811	     -0.00072238	      0.00030174	      0.00012069	      0.00060347	      0.00038622	      0.00115867	      0.00065175	     -0.00001006	     -0.00010461	     -0.00012553	      0.00242669	      0.00851397	      0.00592276	     -0.00793814	      0.01916671	     -0.01817958	      0.00242669	      0.00851397	      0.00592276	      0.00053469	      0.01776828	     -0.00933657	      0.00386638	      0.00473451	      0.01576482	      0.00000000	      0.00732744	      0.00000000	     -0.00695102	     -0.03212274	     -0.00603915	      0.02271029	     -0.00111891	     -0.01304592	     -0.00086374	      0.01447786	     -0.00592276	      0.00238556	      0.02089418	     -0.01727471	     -0.00579937	      0.01254473	     -0.00530581	     -0.01209230	      0.02648790	     -0.02965493	     -0.02270391	      0.01402542	     -0.00711554	     -0.01505368	      0.03060092	     -0.03705838
      1.13333333	     -0.31276960	      0.13247444	     -0.13247444	      0.31276960	     -0.06332948	      0.51180659	      0.23005354	     -0.23005354	     -0.51180659	      0.06332948	    102.32862127	     74.05098221	     -1.78597136	    -40.38963542	     30.74916980	     85.37372793	      0.34787906	     -0.51278181	      0.37306527	     -0.25639090	     40.27164629	    -16.61665742	     -0.59478215	      7.28508313	    102.25656998	     12.25743313	     71.37744383	     57.16923199	     97.19619031	     -0.20453299	     78.43641041	     48.83216561	     91.30661424	    -13.64432519	     87.84163844	     42.14077824	    100.13683064	    -14.23807256	     77.02805922	      5.61629288	      0.00091709	     -0.03112432	     -0.00486768	      0.01430419	     -0.01855316	     -0.00118301	      0.00124184	     -0.06897896	     -0.00692731	      0.01266612	     -0.18225889	      0.00006670	     -0.01024482	      0.00354371	     -0.00073722	      0.00030444	      0.00012178	      0.00060889	      0.00038969	      0.00116906	      0.00065760	     -0.00001013	     -0.00010579	     -0.00012695	      0.00242723	      0.00851587	      0.00592408	     -0.00793992	      0.01917099	     -0.01818365	      0.00242723	      0.00851587	      0.00592408	      0.00053481	      0.01777225	     -0.00933866	      0.00386702	      0.00473557	      0.01576643	      0.00000000	      0.00733074	      0.00000000	     -0.00695257	     -0.03212993	     -0.00604189	      0.02276183	     -0.00112507	     -0.01314595	     -0.00086393	      0.01448109	     -0.00592408	      0.00238609	      0.02089885	     -0.01727858	     -0.00580067	      0.01254754	     -0.00530699	     -0.01209500	      0.02649382	     -0.02966156	     -0.02270899	      0.01402856	     -0.00711713	     -0.01505705	      0.03060777	     -0.03706666
      1.16666667	     -0.31313216	      0.13262800	     -0.13262800	      0.31313216	     -0.06340289	      0.51239987	      0.23032022	     -0.23032022	     -0.51239987	      0.06340289	    102.09474241	     74.13682178	     -1.78188940	    -39.50677594	     30.94851709	     85.62703509	      0.36554743	     -0.45527455	      0.38672699	     -0.22763727	     39.92225189	    -17.16156388	     -1.31841577	      6.76484122	     97.94737403	     12.50953876	     68.62955710	     55.54564870	     93.84610955	      0.44482481	     75.42486172	     47.26450123	     88.11075929	    -13.64370301	     84.18527290	     41.81078988	     96.76730175	    -14.23601521	     72.44479263	      5.64934047	      0.00092368	     -0.03114717	     -0.00487136	      0.01427831	     -0.01860732	     -0.00113982	      0.00122313	     -0.06899106	     -0.00694772	      0.01269518	     -0.18225035	      0.00007357	     -0.01027522	      0.00355757	     -0.00074528	      0.00029224	      0.00011690	      0.00058448	      0.00037407	      0.00112220	      0.00063123	     -0.00001057	     -0.00011263	     -0.00013515	      0.00243004	      0.00852574	      0.00593095	     -0.00794912	      0.01919322	     -0.01820472	      0.00243004	      0.00852574	      0.00593095	      0.00053543	      0.01779285	     -0.00934948	      0.00387033	      0.00474106	      0.01577481	      0.00000000	      0.00734785	      0.00000000	     -0.00696063	     -0.03216717	     -0.00605611	      0.02248798	     -0.00109291	     -0.01262516	     -0.00086493	      0.01449788	     -0.00593095	      0.00238886	      0.02092308	     -0.01729861	     -0.00580739	      0.01256208	     -0.00531314	     -0.01210902	      0.02652453	     -0.02969594	     -0.02273531	      0.01404482	     -0.00712538	     -0.01507450	      0.03064325	     -0.03710963
      1.20000000	     -0.31255587	      0.13238392	     -0.13238392	      0.31255587	     -0.06328621	      0.51145686	      0.22989634	     -0.22989634	     -0.51145686	      0.06328621	    102.21958221	     74.00038087	     -1.78406827	    -40.11383015	     31.13197205	     86.32760429	      0.36231672	     -0.43377938	      0.38426666	     -0.21688969	     39.53767031	    -17.51556609	     -2.62077177	      6.73722128	     92.27471919	     12.64438614	     64.25674145	     54.29951326	     89.32377067	      0.92073653	     70.98935297	     45.51675629	     83.33722716	    -13.64313165	     80.04462903	     41.14485929	     91.49557828	    -14.24602326	     68.16776769	      5.61344813	      0.00092975	     -0.03116820	     -0.00487474	      0.01420592	     -0.01865715	     -0.00101986	      0.00117136	     -0.06902453	     -0.00700415	      0.01277565	     -0.18222663	      0.00009286	     -0.01035929	      0.00359601	     -0.00076777	      0.00028624	      0.00011450	      0.00057248	      0.00036639	      0.00109916	      0.00061828	     -0.00001100	     -0.00011999	     -0.00014399	      0.00242557	      0.00851005	      0.00592004	     -0.00793449	      0.01915789	     -0.01817122	      0.00242557	      0.00851005	      0.00592004	      0.00053445	      0.01776011	     -0.00933228	      0.00386506	      0.00473233	      0.01576149	      0.00000000	      0.00732066	      0.00000000	     -0.00694782	     -0.03210797	     -0.00603352	      0.02267739	     -0.00111500	     -0.01298255	     -0.00086334	      0.01447120	     -0.00592004	      0.00238446	      0.02088457	     -0.01726677	     -0.00579670	      0.01253896	     -0.00530337	     -0.01208674	      0.02647571	     -0.02964129	     -0.02269347	      0.01401897	     -0.00711226	     -0.01504676	      0.03058685	     -0.03704133
